<?xml version="1.0" encoding="UTF-8" standalone="no"?>
<svg
   width="32"
   height="32"
   viewBox="0 0 32.24 32"
   version="1.1"
   id="svg9"
   sodipodi:docname="cdf.svg"
   inkscape:export-filename="cdf-white.png"
   inkscape:export-xdpi="96"
   inkscape:export-ydpi="96"
   inkscape:version="1.2.1 (9c6d41e410, 2022-07-14)"
   xmlns:inkscape="http://www.inkscape.org/namespaces/inkscape"
   xmlns:sodipodi="http://sodipodi.sourceforge.net/DTD/sodipodi-0.dtd"
   xmlns="http://www.w3.org/2000/svg"
   xmlns:svg="http://www.w3.org/2000/svg">
  <defs
     id="defs13" />
  <sodipodi:namedview
     id="namedview11"
     pagecolor="#ffffff"
     bordercolor="#000000"
     borderopacity="0.25"
     inkscape:showpageshadow="2"
     inkscape:pageopacity="0.0"
     inkscape:pagecheckerboard="0"
     inkscape:deskcolor="#d1d1d1"
     showgrid="false"
     inkscape:zoom="3.9371706"
     inkscape:cx="52.321837"
     inkscape:cy="46.226089"
     inkscape:window-width="1680"
     inkscape:window-height="987"
     inkscape:window-x="-8"
     inkscape:window-y="-8"
     inkscape:window-maximized="1"
     inkscape:current-layer="g1522" />
  <g
     id="surface1">
    <g
       id="g1522"
       transform="matrix(0.05792746,0,0,0.05792746,7.4156701,7.8372948)">
      <path
         id="path897"
         style="fill:#ffffff;fill-opacity:1;stroke:none;stroke-width:0.144073;stroke-linecap:round;stroke-linejoin:round"
         d="M 16.12 -0.12000026 A 16.120001 16.120001 0 0 0 3.8154004e-09 16 A 16.120001 16.120001 0 0 0 16.12 32.12 A 16.120001 16.120001 0 0 0 32.24 16 A 16.120001 16.120001 0 0 0 16.12 -0.12000026 z M 16.12 8.7487546 C 17.758537 8.7487546 19.087402 10.077311 19.087402 11.716157 C 19.087402 13.355003 17.758845 14.683559 16.12 14.683559 A 2.968983 2.968983 0 0 1 15.578862 14.632397 L 13.687832 17.906772 A 3.4536602 3.4536602 0 0 0 11.973901 16.916982 L 13.864932 13.642607 A 2.9533417 2.9533417 0 0 1 13.152598 11.716157 C 13.152598 10.077825 14.480846 8.7487546 16.12 8.7487546 z M 18.632847 14.093227 L 20.523877 17.367602 A 2.9781416 2.9781416 0 0 1 21.065015 17.31644 C 22.70386 17.31644 24.032417 18.644894 24.032417 20.283842 C 24.032417 21.922791 22.70386 23.251245 21.065015 23.251245 C 19.426168 23.251245 18.097612 21.922791 18.097612 20.283842 A 2.9533417 2.9533417 0 0 1 18.811914 18.357392 L 16.920884 15.083017 A 3.4524254 3.4524254 0 0 0 18.632847 14.093227 z M 11.174985 17.31644 C 12.466428 17.31644 13.561519 18.14225 13.969224 19.294052 L 17.749316 19.294052 A 3.4613782 3.4613782 0 0 0 17.603701 20.283842 A 3.461584 3.461584 0 0 0 17.749316 21.271665 L 13.969224 21.271665 C 13.561725 22.423364 12.466428 23.249277 11.174985 23.249277 C 9.5360361 23.249277 8.207583 21.922687 8.207583 20.283842 C 8.207583 18.644996 9.5356248 17.31644 11.174985 17.31644 z "
         transform="matrix(17.26297,0,0,17.26297,-128.01649,-135.29498)" />
    </g>
  </g>
</svg>
